<svg id="Слой_1" xmlns="http://www.w3.org/2000/svg" viewBox="0 0 104 104"><style>.st0{fill:#db7643}.st1{fill:#fff}.st2{fill:#d3774a}</style><circle class="st0" cx="52" cy="52" r="52"/><path class="st1" d="M52.6 24.8c4.2 0 7.6 3.4 7.6 7.6S56.8 40 52.6 40 45 36.6 45 32.4s3.4-7.6 7.6-7.6z"/><path class="st1" d="M52.6 50.8c10.1 0 18.4-8.2 18.4-18.4C71 22.3 62.8 14 52.6 14c-10.1 0-18.4 8.2-18.4 18.4.1 10.1 8.3 18.4 18.4 18.4m7.5 15c3.8-.9 7.4-2.4 10.7-4.4 2.5-1.6 3.3-4.9 1.7-7.4-1.6-2.5-4.9-3.3-7.4-1.7-7.5 4.7-17.2 4.7-24.7 0-2.5-1.6-5.8-.8-7.4 1.7-1.6 2.5-.8 5.8 1.7 7.4 3.3 2.1 6.9 3.6 10.7 4.4L34.9 76c-2.1 2.1-2.1 5.5 0 7.6s5.5 2.1 7.6 0l10.1-10.1 10.1 10.1c2.1 2.1 5.5 2.1 7.6 0 2.1-2.1 2.1-5.5 0-7.6L60.1 65.8"/><path class="st2" d="M52.6 39a6.7 6.7 0 1 0 0-13.4 6.7 6.7 0 0 0 0 13.4"/></svg>