<svg id="Слой_1" xmlns="http://www.w3.org/2000/svg" viewBox="0 0 422 422"><style>.st0{fill:#4d7251}.st1{fill:#849f57}.st2{fill:#b39471}.st3{fill:#94765a}.st4{fill:none}.st5{fill:#4a4841}.st6{fill:#313229}.st7{fill:none;stroke:#8ab35b;stroke-width:20;stroke-miterlimit:10}</style><path class="st0" d="M345.2 368.8h1.7c1-.9 1.9-1.7 2.9-2.6 15-14.1 27.5-30.4 38.9-47.5 0-.1.1-.1.1-.2.9-1.3 1.7-2.6 2.6-3.8 2.9-4.4 5.7-8.8 8.4-13.2.2-.3.4-.6.6-.8-5.4-25.5-28-44.6-55.1-44.6-31.1 0-56.4 25.2-56.4 56.4-.1 31.1 25.1 56.3 56.3 56.3z"/><path class="st1" d="M349.7 366.2c13.2-12.4 24.5-26.6 34.7-41.4-2.8-.4-5.6-.6-8.5-.6-33.3 0-60.3 27-60.3 60.3 0 2 .1 3.9.3 5.8 12.1-6.5 23.4-14.4 33.8-24.1z"/><ellipse class="st1" cx="119" cy="300.2" rx="74.3" ry="74.3"/><path class="st1" d="M31.7 319c.9 1.4 1.9 2.8 2.9 4.2 15.1-3.8 26.4-17.5 26.4-33.8 0-19.2-15.6-34.8-34.8-34.8-6.6 0-12.7 1.8-17.9 5 3.2 21.2 11.4 41.4 23.4 59.4z"/><path class="st0" d="M31.7 319c22.4 33.8 56.3 58.9 92.5 76.6 1.9-6.8 2.9-14 2.9-21.4 0-44.2-35.9-80.1-80.1-80.1-9.4 0-18.4 1.6-26.8 4.6 3.4 7.1 7.2 13.8 11.5 20.3z"/><path class="st2" d="M352.6 300.5c-19.5-7.9-46.4-13.1-73.1-10.4l-53.3 7.3c-8.8-.6-18.2 3.9-26.4 4l-19.5 4.4-5.4 1.2c-1 .6-2.1 1.1-4 .9l-25.1 6.3c-5.6 5.2-15.5 6.1-24 8.4l-10.4 4.2c-20.5 4-22.5 29.8-35 39.5 18.2 14.1 38.6 25.7 59.4 34.9 9.6 4.2 19.4 7.9 29.5 11.2h75.5c20.8-6.3 42.2-10.6 63.3-16.2 9.5-4.2 18.5-9.1 27.1-15 .3-5.1 1.5-10.4 3.8-15.9 19.5-6.8 21.8-41 17.6-64.8z"/><path d="M174.9 306.9l5.4-1.2c-2.8-.5-4 .4-5.4 1.2z"/><path class="st3" d="M97 380.5c23.1-2.4 59.8-7.4 67.3-14.9 11.1-11.1 35.7-31.3 44.6-36.9 9-5.6 34.7-18.1 22.9-16-11.8 2.1-48.7-3.5-65.4 4.9-16.7 8.4-55.7 27.1-59.2 38.3-2 6.5-9.7 14.8-16.8 20.4l6.6 4.2zm38.8 20.5c4.9 2.2 10 4.2 15 6.1 2.5-.2 4.4-.6 5.7-1.2 13.7-6.3 7.9-3.5 10-10.4 2.1-7-16.7-13.1-16.7-13.1s-27.8-.1-32 0c-1.2 0-6.8.8-14.3 2 10.4 6.2 21.3 11.7 32.3 16.6zm126-60.5s4.2 16.7 0 29.2 2.1 22.3-18.8 25.1c-20.9 2.8-28.4 1.4-34 4.8-5.7 3.5-23.1 12.5-28.7 12.5-5.5.1 81.5-71.6 81.5-71.6z"/><path class="st4" d="M148.7 247.9c3.5-5.5 6-8.6 7.7-10.4 1.5-1.6 1.2-5.2.4-9.4-1.5-1.7-3.1-3.3-4.7-4.9-1 8.4-2 16.7-3.4 24.7z"/><path class="st4" d="M156.4 237.5c-1.7 1.8-4.2 5-7.7 10.4-2.9 17-7.1 32.6-15.4 44.2 9.7 6.4 16.7 20.3 33.4 13.6 14.7-17-5.5-32.2-9.4-49.1 4.1-3.9 8-8 10.4-13.6-3-5.7-6.8-10.5-11-14.9 1 4.2 1.2 7.8-.3 9.4zm42.7 22.3c3.1-6.7 7.4-12.1 6.3-23-5.9-.5-7.1-1-11.5 1-3.5 11.2-11.1 18.1-20.9 23-.6 13.1 4.9 20.2 8.4 29.2 14-1.3 27.6-16.2 41.8-7.3-5.3-10.4-19.5-11.9-24.1-22.9z"/><path class="st5" d="M319.2 211.7c-8.5-6.9-10.5-20.1-17.8-28.2-7 2.1-11.3-.9-16.7-3.1-3.3-23.8-20.7-33.6-26.1-55.3 2.9-.9 5.2-2.5 8.4-3.1-1.3 9.1 12.6 5.9 16.7 1 2.4-13.2-6.8-14.8-11.5-20.9 2.9 1.1 5.9 1 9.9.9 5.5-.1 6.1-2.6.8-4.7-7.4-2.9-15.7-4.9-21.1-9.8-1.3-4.2-.6-10.6-2.1-14.6-3.4.8-1.6 6.7-5.2 7.3-3.5 1.1-1.6-3.2-2.1-5.2-3.4 8.1-18.6 4.3-23 11.5-8.7-3-14.7-7.5-24-7.3 7.2-5.4 4.9-13.7-.2-20.6-.1 4-1 7.8-2.6 10.1-4.7 7 2.1 14.6 2.1 14.6s25.8 9.7 21.6 18.1c-4.2 8.3 5.7 13.2-4.4 27.8-10.2 14.6-12.1 16-12.9 24.4-.8 8.4 4.8 4.2-4.3 16-9 11.8-20.3 18.1-24.4 19.1-4.1 1-16.7-5.2-20.1 0-3.5 5.2-7.7 10.8-7.7 14.3s-2.1 2.1 0 9.1c1.2 3.8 3.2 9.8 4.3 15 4.1 4.5 8 9.3 11 14.9-2.5 5.5-6.4 9.6-10.4 13.6 3.9 16.9 24.1 32 9.4 49.1-16.7 6.7-23.7-7.1-33.4-13.6 8.3-11.6 12.5-27.2 15.4-44.2-3.2 5-7.2 11.9-12.2 21.6-10.4 20.2-11.2 36.2-36.6 28.9 2.6 6.1 6.6 10.9 15.7 10.4-1.5 5.8-4.1 10.5-4.2 17.8l10.4-4.2c.8-9 7.1-12.4 9.4-19.8 6.9 1.8 7.3 10.1 14.6 11.5l25.1-6.3c2.6-2.6 3.6-6.9 9.4-6.3v4.2l19.5-4.4c-2.8 0-5.5-.5-8-1.9 8.1-7.6 27.9-15.7 34.5-2.1l53.3-7.3c-4.8-.1 5-6.2-1-8.4-4.3-2.6-3.5 3.4-7.3 4.2-5.6-2.7-17-3.6-18.8 3.1-10.8-10.2-36.2-14-34.5-31.3.9-8.8 16-16.3 14.6-30.3 5.2-.1 10.6.2 12.5-3.1-.5-3-4-3-6.3-4.2 9.8-3.9 14-18.5 29.2-13.6 5.4 5.4 4.5 17.1 6.3 26.1-4.8 1.6-10.7 9.2-5.2 14.6 17.1-1.5 14.5-19.6 10.4-32.4 7.7-1.2 12.2.5 18.8-2.1-4.6-6.6-16.9-5.4-17.8-15.7 7.7 1.1 9.3-4 14.6-3.1 10.5 1.6 9.5 15.8 16.7 21.9-.7 3.1-3.8 3.8-5.2 6.3-.6 5.9 1.4 9.1 4.2 11.5 11.4-1.9 7.3-13 8.3-21.8zm-96.1 71.1c-14.1-8.9-27.8 6.1-41.8 7.3-3.5-9.1-9-16.1-8.4-29.2 9.7-4.9 17.4-11.8 20.9-23 4.4-2.1 5.6-1.5 11.5-1 1.1 10.9-3.2 16.3-6.3 23 4.7 10.9 18.9 12.4 24.1 22.9z"/><path class="st6" d="M136.5 269.5c5-9.6 9-16.6 12.2-21.6 1.4-8 2.4-16.3 3.4-24.7 1.6 1.6 3.2 3.2 4.7 4.9-1.1-5.2-3.2-11.1-4.3-15-2.1-7 0-5.6 0-9.1s4.2-9.1 7.7-14.3c3.5-5.2 16 1 20.1 0 4.1-1 15.4-7.3 24.4-19.1 9.1-11.8 3.5-7.7 4.3-16 .8-8.4 2.7-9.7 12.9-24.4 10.2-14.6.3-19.5 4.4-27.8 4.2-8.4-21.6-18.1-21.6-18.1s-6.8-7.7-2.1-14.6c1.6-2.4 2.5-6.1 2.6-10.1-1.8-2.4-3.9-4.7-6.1-6.6-13 .8-16.9 26.1-5.2 28.2-12.4 11.3-16.5 30.9-18.8 52.2-.8 3.6 3.8 1.7 4.2 4.2-1.8 7.9-2.8 16.7-4.2 25.1-13.7 6.8-17.6 23.4-31.3 30.3-11 21-17 47-21.9 74.1-8.8 6.8-13.4 17.9-23 24-1.4 5.5 10.6 1.6 7.3 3.1 1.2 4.7-4.2 2.8-6.3 4.2 25.4 7.3 26.1-8.7 36.6-28.9z"/><path class="st6" d="M198 186.1c-.3-8.2 3.2 4.8 5.3 13.8 2.1 9 3.5 7 0 13.9-3.5 7-9.7 18.1-9.7 18.1s4.7-38.1 4.4-45.8zm16.4 22.5s8.8 6 7.2 12.2c-1.6 6.3-.5 9.4-3.5 14.8s-8.6 17.9-8.6 17.9l-4.1 3.5s15.3-36.3 9-48.4zm23-100.6c-1.4 5.6-7.7 12.5 0 16.7 7.7 4.2 23 6.1 23 6.1l-1.8-5.7 8.4-3.1s-30.2-6.3-29.5-16.7m9 43.8s-8.4 2.8-5.6 18.1c2.8 15.3 7.7 19.5 12.5 22.3 4.9 2.8.9 4.5 10.2 3.6 9.3-.8 16.9 4 16.9 4s-36-27.5-34-48z"/><circle class="st7" cx="211" cy="211" r="201"/></svg>