<svg id="Слой_1" xmlns="http://www.w3.org/2000/svg" xmlns:xlink="http://www.w3.org/1999/xlink" viewBox="0 0 422 422"><style>.st0{fill:#744e49}.st0,.st1,.st2{clip-path:url(#SVGID_2_)}.st1{fill:#515e4e}.st2{fill:#c9c8c8}.st3{fill:#6b6966}.st3,.st4,.st5,.st6,.st7{clip-path:url(#SVGID_2_)}.st4{fill:#a14944}.st5{fill:#bdaf60}.st6{fill:#46433e}.st7{fill:#5b3e3a}.st8{stroke:#8ab35b;stroke-width:20;stroke-miterlimit:10}.st8,.st9{fill:none}</style><defs><path id="SVGID_1_" d="M151 33h119.5v478.6H151z"/></defs><clipPath id="SVGID_2_"><use xlink:href="#SVGID_1_" overflow="visible"/></clipPath><path class="st0" d="M235.2 140.1c0-.9-.3-5.1-2.8-7.5l-.1-.1h-43.2c0 .1-.1.1-.1.1-2.4 2.4-2.7 6.6-2.8 7.5v28.4H235v-28.4z"/><path class="st1" d="M231.2 124.1h-2.6l-8.4 5s-1.8-2-4.9-3.4c0 0-2.9-2.1-2.5-5.4H209c.4 3.3-2.5 5.4-2.5 5.4-3.2 1.4-4.9 3.4-4.9 3.4l-8.4-5h-2.6c.1 2.8-2.7 7.7-3.2 8.6h47.2c-.7-.8-3.5-5.8-3.4-8.6"/><path class="st1" d="M210.8 42.2l-16.6 90.3h33.2z"/><path class="st2" d="M189.2 163.4h12.3v5.9h-12.3zm30.4 0h12.8v5.9h-12.8zm-16.3 0h14.4v5.9h-14.4zm27.9-37.2h-2.6l-8.5 4.4s-1.8-1.8-4.9-3c0 0-2.9-1.9-2.5-4.7h-3.8c.4 2.9-2.5 4.7-2.5 4.7-3.2 1.2-4.9 3-4.9 3l-8.5-4.4h-2.7c.1 2.4-2.7 6.8-3.2 7.5h47.4c-.5-.8-3.4-5.1-3.3-7.5"/><path class="st2" d="M187.1 132.8c-3 2.8-3 7.8-3 7.8h53.4s0-5-3-7.8l-.1-.1h-47.2l-.1.1"/><path class="st3" d="M214.1 132.1s-3.6-2.1-3.6-4.7c0 2.5-3.6 4.7-3.6 4.7-3.8 1.4-3.6 4.9-3.6 4.9v16.9h14.4V137s.2-3.5-3.6-4.9m-16.4-.4s-2.8-1.5-2.8-3.9c0 2.4-2.8 4.8-2.8 4.8-3 1.8-2.8 5-2.8 5v15.7l5.6-.9 5.6-.9v-15.8c0 .2.2-3.2-2.8-4m25.7.4s2.8-1.5 2.8-3.9c0 2.3 2.8 4.8 2.8 4.8 3 1.8 2.8 5 2.8 5v15.7l-5.6-.9-5.6-.9v-15.8c0 .1-.2-3.2 2.8-4"/><path class="st2" d="M200.5 133.2h1v30.9h-1zm-11.3-.6h1V164h-1zm42.2.3h1v31.4h-1zm-28.1.3h1v30.9h-1zm13.4-.2h1v31.1h-1zm2.9-.3h1v31.4h-1z"/><path class="st0" d="M153.2 272h115.1v131H153.2z"/><path class="st0" d="M242.7 259.9H240v-90.5h-58.9v89.4h-2.3v13.5h2.3v1.2H240v-1.3h2.7z"/><path class="st4" d="M210.8 33l2.1 4.4 4.8.6-3.5 3.4.9 4.8-4.3-2.3-4.3 2.3.8-4.8-3.5-3.4 4.8-.6z"/><path class="st2" d="M181.3 170.3h58.8v5h-58.8z"/><path class="st5" d="M231.2 209.2c0 11.3-9.1 20.4-20.4 20.4-11.3 0-20.4-9.1-20.4-20.4 0-11.3 9.1-20.4 20.4-20.4 11.2 0 20.4 9.1 20.4 20.4"/><path class="st6" d="M228.3 209.2c0 9.7-7.9 17.5-17.5 17.5-9.7 0-17.6-7.9-17.6-17.5 0-9.7 7.9-17.6 17.6-17.6 9.7 0 17.5 7.9 17.5 17.6"/><path class="st5" d="M211.8 224.1c0 .8-.6 1.4-1.4 1.4-.8 0-1.4-.6-1.4-1.4V204c0-.8.6-1.4 1.4-1.4.8 0 1.4.6 1.4 1.4v20.1z"/><path class="st5" d="M222.2 217.2c.6.5.6 1.4.1 2-.5.6-1.4.6-2 .1L205.1 206c-.6-.5-.6-1.4-.1-2 .5-.6 1.4-.6 2-.1l15.2 13.3z"/><path class="st2" d="M256 251.3l-3.5-2.8s1-7-4-6.8c-5-.2-4 6.8-4 6.8l-3.5 2.8h-11.5l-3.5-2.8s1-7-4-6.8c-5-.2-4 6.8-4 6.8l-3.5 2.8H206l-3.5-2.8s1-7-4-6.8c-5-.2-4 6.8-4 6.8l-3.5 2.8h-10.6l-3.4-2.8s1-7-4-6.8c-5-.2-4 6.8-4 6.8l-3.4 2.8h-12.1v2.3h114.6v-2.3H256z"/><path class="st0" d="M153.4 252.5H165v21h-11.6z"/><path class="st2" d="M151 252.5l8.2-38.5 8.2 38.5z"/><path class="st5" d="M160.6 214c0 .8-.7 1.5-1.5 1.5s-1.5-.7-1.5-1.5.7-1.5 1.5-1.5c.9 0 1.5.7 1.5 1.5"/><path class="st0" d="M256.6 252.5h11.6v21h-11.6z"/><path class="st2" d="M254.2 252.5l8.2-38.5 8.1 38.5z"/><path class="st5" d="M263.8 214c0 .8-.7 1.5-1.5 1.5s-1.5-.7-1.5-1.5.7-1.5 1.5-1.5c.9 0 1.5.7 1.5 1.5"/><path class="st2" d="M249.1 253.6h-95.9v7.2H167s.5-5.3 5.4-5.2c4.9-.1 5.4 5.2 5.4 5.2h14.5s.5-5.3 5.4-5.2c4.9-.1 5.4 5.2 5.4 5.2h14.6s.5-5.3 5.4-5.2c4.9-.1 5.4 5.2 5.4 5.2h15.4s.5-5.3 5.4-5.2c4.9-.1 5.4 5.2 5.4 5.2h13.8v-7.2h-19.4z"/><path class="st2" d="M232.8 278s2.1-13.5-8.4-17.9c0 0-8.3-5.4-8.3-16.6 0 0 .6-6.1-5.3-6.1-5.9 0-5.3 6.1-5.3 6.1 0 11.2-8.3 16.6-8.3 16.6-10.6 4.4-8.4 17.9-8.4 17.9h-37.5l1.9 5h40.7c.1-11.6 7.7-16.1 7.7-16.1 6.5-3.5 8.2-8.3 8.2-8.3h2.2s1.6 4.8 8.2 8.3c0 0 7.6 4.5 7.7 16.1h40.7l1.9-5h-37.7z"/><path class="st2" d="M165 260.8h1.5v17.8H165zm13.2 0h1.5v17.8h-1.5zm12.2 0h1.5v17.8h-1.5z"/><path class="st2" d="M165.7 272h13.8v6.5h-13.8zm63.2-11.2h1.6v17.8h-1.6zm13.2 0h1.5v17.8h-1.5zm13 0h1.6v17.8h-1.6z"/><path class="st2" d="M242.1 272h13.7v6.5h-13.7zm-54.9 11.1h6.4v43.1h-6.4zm40.7 0h6.4v43.1h-6.4z"/><path class="st2" d="M191.9 323.8h37.7v2.4h-37.7z"/><path class="st1" d="M180.3 168.5h60.8v1.8h-60.8z"/><path class="st2" d="M153.3 335.2h114.9v1.5H153.3z"/><path class="st7" d="M214.9 275.5c0-2.3-1.8-4.1-4.1-4.1s-4.1 1.8-4.1 4.1v10.1h8.2v-10.1z"/><circle class="st8" cx="211" cy="211" r="201"/><path class="st9" d="M195.1 140.5h53.4v29h-53.4z"/></svg>