<svg xmlns="http://www.w3.org/2000/svg" viewBox="0 0 519.53 284.74"><title>ico-map</title><path d="M432.41 170.49a27 27 0 0 1 .1 12.7c-.89 3.62-2.6 6.87-1.59 7.65s4.1-2.41 5.86-1.38.94 5.22 1.37 5.26.8-4.8 2.14-5 2.58 3.59 3.17 3.38c.4-.15-.36-1.84.22-3.92.09-.32.67-3.16 2.87-3.66a10.12 10.12 0 0 1 5.06.6c2.32.69 4.83 1.52 6.12 3.56a12.42 12.42 0 0 0 1 1.7 15.93 15.93 0 0 0 2.66 1.76c1.74 1.3 2.24 3.69 2.3 5.87s-.18 4.43.59 6.46c1.17 3.09 4.37 4.93 6.14 7.72 3.1 4.9 1.18 11.25 1.19 17.06 0 4 1 7.89 1.26 11.85a69.7 69.7 0 0 1-.29 10.48c-.5 6.4-1.07 13-4.17 18.66a11 11 0 0 1-4.73 4.9c-2.1 1-4.87.72-6.36-1a21.77 21.77 0 0 0-4.06 7.77 4.68 4.68 0 0 1-1.52-2.83c-.17-1.81 1.21-2.4 1.38-4.14.24-2.39-2-2.92-3.38-6.67-.41-1.16-1.87-4.77-.09-6.66 1.32-1.41 3.65-1.5 4.93-2.94 1.09-1.23 1.09-3.06 1-4.71-.18-4.93.31-7.39-.39-10.54-.79-3.51-1.68-7.49-3.82-7.91-.71-.14-1.46.13-6.18 4.36-4.48 4-4.79 4.73-6 4.75-3.51.06-5.39-4.16-8.5-5.78-2.74-1.42-6-.64-9.14-.74a5.44 5.44 0 0 1-2.19-.44 6.49 6.49 0 0 1-2.1-1.94c-3.19-4-6.24-8.15-10.08-11.52s-8.02-6.92-13.02-5.9a32.67 32.67 0 0 0-13.12 5.9 3.91 3.91 0 0 0-1.46 1.66 3.68 3.68 0 0 0 .22 2.61 7.56 7.56 0 0 0 1.8 2.39c1.68 2.08-.66 5.47-1.31 10a31.78 31.78 0 0 0 0 3.73c0 3.2.12 4.07-.38 5.16a6.28 6.28 0 0 1-2.82 2.78c-4.79 2.74-11.9-.07-18 2.28-8.63 3.33-9.5 6.81-17.94 9.41a16.55 16.55 0 0 1-10.87-.43c-3-1.21-5.81-3.35-9.07-3.66-4.7-.44-9.37 3-13.89 1.68-4.16-1.26-6.12-6-9.58-8.6-4.08-3.09-10.67-2.53-13.69 1.6-2.24 3.07-2.24 7.18-2.16 11-3.17 1.79-7.19.79-10.43-.86s-6.24-3.93-9.78-4.76a10.35 10.35 0 0 0-7.24.48l-14.46 7.2a13.06 13.06 0 0 1-3.52 1.34 18.65 18.65 0 0 1-4.67-.5 21.13 21.13 0 0 1-10.45-6.39c-4-4.31-2.54-5.88-5.24-7.24-2.34-1.18-5.79-1.25-12.15-1.17a5.39 5.39 0 0 1-3-.8 5.07 5.07 0 0 1-1.88-2.62c-2.07-5.57-.65-8.21-2.8-12-1-1.78-3.16-4.34-3.58-7.69-.51-3.16-.73-5.67-2.21-6.17-.65-.22-1 .15-4.41 1.59-1.18.49-3.72 1.53-5.87 1.28a2.18 2.18 0 0 1-1.46-.63 3.78 3.78 0 0 1-.55-1.5c-.52-1.79-2.3-2.92-4.06-3.52s-3.66-.85-5.31-1.72a3 3 0 0 1-1.19-1c-1.39-2.21 2.43-5.28.88-7.37-.63-.86-1.85-1-2.92-1-10.73-.44-22.33 2.66-32.25-1.47a6.21 6.21 0 0 0-4.44-.3 3.73 3.73 0 0 0-2.55 3.41c0 1.17.71 2.46 0 3.42a3.13 3.13 0 0 1-1.46.94 20.12 20.12 0 0 0-5.68 3.6 1.9 1.9 0 0 0-.64.88 2.14 2.14 0 0 0 .65 1.7c1.33 1.76 2.14 4.69.28 5.88a4 4 0 0 1-3.05.21 16.71 16.71 0 0 1-7.93-4.35c-1.36-1.34-2.48-2.9-3.91-4.16a12.7 12.7 0 0 0-12.21-2.43c-1.57-2.59-.71-5.94-1.41-8.88-1.13-4.75-7-7.52-12.42-7.51-7.62 0-11.69 6.3-11.93 6.69-1.49.17-2.12-.19-2.41-.55-1.11-1.35 1.2-4.24 0-5.51a2.09 2.09 0 0 0-1.87-.54 1.56 1.56 0 0 0-.66.37c-1.39 1.32-2.44 3-3.79 4.34-1.64 1.66-3.69 2.89-5.19 4.67s-2.35 4.46-1.11 6.44a18.74 18.74 0 0 0 1.26 1.54c2.16 2.72 1.72 6.61 1.18 10-1.57-.6-2.13-.55-2.3-.31-.43.6 1.75 2.49 1.17 3.58a1.5 1.5 0 0 1-1.13.63 23.88 23.88 0 0 0-15.45 3.77 1.91 1.91 0 0 0-1.08 2.21c.23 2.67.83 5.63-.7 7.84a25.76 25.76 0 0 0-1.84 2.32 5.93 5.93 0 0 0-.47 3.44q.28 4 .76 8.27c-3.43 2-4.93 1.58-5.58 1.17-.81-.5-.88-1.3-2.27-4.27-1.19-2.55-1.32-2.36-1.73-3.41-1.42-3.7.41-5.47-.46-8.31-.75-2.43-2.35-2-6.34-5.76a10.49 10.49 0 0 1-1.47-1.41c-1.23-1.67-.78-2.71-1.5-4.27-1-2.23-2.54-1.4-4.76-4.41a39.74 39.74 0 0 1-2.1-3.4c-.38-.66-.79-1.39-1.22-2.19-2.57-4.8-4.24-8.24-4.57-12.76-.17-2.36-.16-5.13 1.72-6.56 1.1-.84 1.69-.44 3.34-1.34.76-.41.74-.69 1.36-1 1.47-.71 2.32-.06 3-.62 1-.85-.28-2.93.55-3.65 1.24-1.07 5.22 2.55 6.82 1.31a2 2 0 0 0 .62-1.52c-1.81 0-3.13-1-3.24-2.14a2 2 0 0 1 .83-1.79 2.85 2.85 0 0 1 1.72-.28c2.46-.05 2.74-.71 3.65-.34 1.35.53 1.09 2.09 2.07 2.34 1.15.29 2.25-1.66 4.76-4.27 3.24-3.38 4-2.87 4.55-4.2.6-1.59-6.08-7.4-7.54-13.89a10.23 10.23 0 0 0-.25-1.8c-.44-1.49-1.17-1.83-1.31-3a4.34 4.34 0 0 1 .41-2.07c.7-2 1.49-2.12 1.65-3.17.31-1.92-2.16-2.64-2-4.43s2.78-1.84 3.63-4.4a5.19 5.19 0 0 0-.27-3.58c-1.26-3.09-4.73-3.8-5-3.86 3-5.25 4.41-6.51 5-6.27s.32 1.57 1.38 2.34a3 3 0 0 0 2.76.28c2.43-1.1-.11-6.31 2.38-11.78 2.19-4.81 6.28-5.45 6-8.65-.23-2.47-2.75-2.91-3.12-5.49-.22-1.54.48-3.16 4.62-7.65s6.39-6.93 9.1-8.55c3.83-2.29 6.75-4.47 10.12-3.6a7.69 7.69 0 0 1 3.32 1.88c.13-2.45.69-5.52 2.86-6.84 1.53-.94 2.9-.57 5.69-.28 4.38.46 9.34.34 12.44-2.79 2.26-2.28 3-5.65 4.8-8.31 3.51-5.17 10.3-6.78 15.37-10.43 3.16-2.27 5.65-5.35 8.64-7.84 3.45-2.87 7.14-4.75 10.66-3.78 3.94 1.08 5.74 5.6 7.16 9.18a25.63 25.63 0 0 1 1.28 13.68c-.39 2.7-.73 4.53-1.93 6.19a9 9 0 0 1-3.69 3.08 8.81 8.81 0 0 1-8.82-1c-.53-.43-.94-.9-2.62-3.86-1.45-2.55-2.56-4.7-3.31-6.2a13.43 13.43 0 0 1-2.55 4.2c-1.84 2-3.53 2.42-4.69 3.52-1.68 1.6-3.24 4.66-2.55 11.1a2.23 2.23 0 1 0 3.24-2.9q2.91-4.67 4-4.27.82.3.6 3.47c-.24 3.72 1.48 6.26 2.85 6.32s3-2 3.45-5c2.81-1.2 6.77-2.3 10.55-.83 2.44 1 2.67 2.18 4.34 2.21 5 .09 7-9.74 11.58-9.44a4.08 4.08 0 0 1 3.25 2.53c.69 1.72-.05 4-1.87 5.68-1.55-1.68-3.81-2-5.17-1.1a4 4 0 0 0-.48 5.51c1.74 1.57 5.22-1.3 10.61-2.27 3.21-.58 8.05-.66 14.54 2.14a2.56 2.56 0 0 0-.28 2.21c.49 1 1.95.93 4.55 1.31a32.68 32.68 0 0 1 5.65 1.24 13.24 13.24 0 0 1 5.24 3.58 11.47 11.47 0 0 0 3.47-5.42 4.92 4.92 0 0 1 1.49-.24c7.3 0 12.23 17.19 14.06 16.61.4-.13.7-1.12.22-4.94-.7-9 1.4-12.68 3.64-14.29 1.4-1 2.08-.66 4.14-2.07 4.7-3.22 4.6-7.42 7.17-7.65 1.8-.16 2.18 1.86 6 3.45 2.27 1 3.63 0 5.27 1.17 1.37 1 .8 1.94 2.14 3.1s2.71.82 5.58 1.72a17.81 17.81 0 0 1 4.14 1.93 21.88 21.88 0 0 1 3-9.37 17.75 17.75 0 0 0 10.42-2.23c4.18-2.57 4.54-6.6 7.62-8.89 5.85-4.34 14.5-2.08 20.92-5.52a6.86 6.86 0 0 1 9.87-9.12c-1.73 2.65 2.26 5.54 5.42 5.42s6.82-1.19 9.14 1c2.92 2.71.73 7.55-1.68 10.72s-5 7.64-2.5 10.76a30.9 30.9 0 0 1 29.5-4.83c-.28-1-1.16-4.78.84-7.13 2.73-3.2 9.5-2.27 13 .83s2.38 6.71 6.07 9.17a10.25 10.25 0 0 0 6.48 1.45c-1.42-2.54-2.85-5.66-1.79-6.75.78-.8 2.22.17 4.48 0 4.55-.35 9.22-5.12 8.66-8.28-.47-2.67-4.47-3.91-4.06-5.89a1.46 1.46 0 0 1 .55-.82c5.93-4.1 12.37-8.37 19.58-8.34 2.21 0 4.44.43 6.62 0 4.52-.86 7.54-5 11-8s9.36-4.79 12.3-1.25a22.52 22.52 0 0 1 16.87-16.24 10.2 10.2 0 0 0-3.29-3.13c-2.59-1.5-5-1.21-5.25-2.31-.18-.73.74-1.37 1.72-2.48a15.82 15.82 0 0 0 3.17-6.41c.94-2.46 6.68-7.19 27-17.07a6.7 6.7 0 0 1 4.57-8.27c1.74-.43 4.1-.87 6.21.29a6.74 6.74 0 0 1 1.88 1.54 5.85 5.85 0 0 1 .9 1.91c.11.29.39.58.5.86a5.42 5.42 0 0 0 5.31 3.41 5.21 5.21 0 0 1 2 0 2.25 2.25 0 0 1 1.34 2.39 4.61 4.61 0 0 1-1.37 2.57 10.1 10.1 0 0 1-4.92 2.87c-2.23.55-5.09.64-6 2.75-.38.88-.3 1.95-.89 2.69-1.24 1.55-4.17.37-5.47 1.86 2 1.6 4.64 2.06 6.84 3.36s3.93 4.23 2.48 6.33a7 7 0 0 0-.86 1.21c-.54 1.32.91 2.73 2.33 2.8s2.74-.67 4.05-1.21a14.57 14.57 0 0 1 10.91 0 5.83 5.83 0 0 1 2.62 1.75 2.71 2.71 0 0 1 .27 3 7.11 7.11 0 0 1-1.25 1.24c-2.5 2.36-2 6.41-1.05 9.72a96.67 96.67 0 0 0 9.34 22.76c-3.09.43-6.78 1.37-7.65 4.36-.55 1.88.26 4.08-.74 5.76a15 15 0 0 1-1.7 1.86 6.82 6.82 0 0 0-1 6.35 19.93 19.93 0 0 0 3.29 5.8c1.89 2.59 4.11 5.38 7.27 5.87a8.39 8.39 0 0 1 2.77.54 6.88 6.88 0 0 1 2.18 2.18c2.55 3.09 6.69 2 7.25 4 .32 1.16-1 1.55-.9 3.24.16 2.15 2.49 3.74 3.58 4.49 2 1.36 2.61 1.23 3.69 2.31s1.48 2.88.44 3.9c-.57.56-1.45.74-2 1.33a2.89 2.89 0 0 0-.53 2.25 7.37 7.37 0 0 0 2.46 4.76c.83.72 1.87 1.34 2.18 2.38a5.6 5.6 0 0 1 .06 1.83c-.15 3.77 2.22 7.09 4 10.4s3.08 7.59.91 10.68c-9.44-4.79-16.13-13.64-24.76-19.77-2.49-1.77-5.2-3.36-7.13-5.73-2.7-3.31-3.56-7.7-4.33-11.9l-4.4-23.9a36.33 36.33 0 0 0-1.9-7.39 18.37 18.37 0 0 0-10.15-10c0 2.25 1.12 4.34 2.24 6.3s2.31 4 2.53 6.21-.84 4.79-3 5.5a7 7 0 0 0-1.61-2.92 2.42 2.42 0 0 0-3.06-.33 3.19 3.19 0 0 0-.87 1.55c-1.35 4.26-.92 8.87-.11 13.26.58 3.13 1.69 6.65 4.61 7.93a2.84 2.84 0 0 1 1.64 1.1 2.25 2.25 0 0 1-.36 1.91l-3 5.64c-1 1.82-2.53 3.93-4.53 3.46-1-.23-1.75-1.08-2.72-1.39a3.92 3.92 0 0 0-4 1.62 13.13 13.13 0 0 0-2.24 4c-2 7.24-14.22 8.44-16.16 16.94-.32 1.4.14.79-.07 6.2a99.22 99.22 0 0 1-1 10.48z" fill="none" stroke="#201600" stroke-miterlimit="10" stroke-width="2"/><path d="M496.85 228.51a3.24 3.24 0 0 0 .61-4.24 7.06 7.06 0 0 0-3.76-2.7 29.3 29.3 0 0 1-4.4-1.68c-3.85-2.19-5.24-7-6.29-11.27a14.87 14.87 0 0 1 6.17-1.34l-1.83-1.69s-1.67-1.67-3.52-3.16a124.85 124.85 0 0 1-12.35-10.73c-2.06-2.16-3.95-4.48-5.83-6.79l-6.82-8.4a2.45 2.45 0 0 0-.43 3.13 11.81 11.81 0 0 0 2.33 2.54 1 1 0 0 1 .41.8 1.72 1.72 0 0 1-.4.68c-.56.83-.15 1.94.33 2.82 3.31 6.1 8.89 10.66 12.74 16.44 1.06 1.59 2 3.26 2.92 4.93a228.37 228.37 0 0 0 15.06 23.17 11.67 11.67 0 0 0 .72-5.81 14.6 14.6 0 0 1 4.34 3.3zM349.67 56.19a2.39 2.39 0 0 1-.77.5c-1 .28-1.7-.7-2.42-.49-.35.1-.78.51-1 2a3 3 0 0 0-2.48.92 3 3 0 0 0-.25 2.89 6.1 6.1 0 0 0 1.79 2.39 9.28 9.28 0 0 0 2.7 1.68 2.69 2.69 0 0 0 2.6-.07 5.7 5.7 0 0 0 1.12-1.84c.72-1.25 2.09-1.94 3.27-2.77s2.31-2.09 2.11-3.52a4 4 0 0 0-1.39-2.23 2.33 2.33 0 0 0-1-.62 2.57 2.57 0 0 0-1.08 0 7.13 7.13 0 0 0-3.2 1.16zm-68.65 10.37c.74-.49 1.6-.77 2.32-1.27a2.26 2.26 0 0 0 1.09-2.24c-.35-1.37-2.34-1.6-3-2.84a3.18 3.18 0 0 0-.81-1.39 1.26 1.26 0 0 0-1.64.86 10 10 0 0 0-.22 2.1 7.75 7.75 0 0 1-2.1 3.74 2.59 2.59 0 0 0-.86 2.32c.34 1 1.78 1.17 2.73.68a27.39 27.39 0 0 0 2.49-1.96zm-94.57 8.1a6.23 6.23 0 0 0 2.9 4.91c4.32-.1 8.15-2.58 12.05-4.43a44 44 0 0 1 18.76-4.23 6.89 6.89 0 0 0 3.18-.47 2.15 2.15 0 0 0 1.15-2.69c-.5-1-1.76-1.11-2.83-1.15l-8.16-.33a32.77 32.77 0 0 0-9.81.59 32.7 32.7 0 0 0-5.56 2.25zm-.29 7.13a1.81 1.81 0 0 0-.19-1.06 24.1 24.1 0 0 0-1.84-3.58 6.39 6.39 0 0 0-2.22.42 2.17 2.17 0 0 0-1.34 1.69 3 3 0 0 1-.06.69 1.53 1.53 0 0 1-1.34.79 14.37 14.37 0 0 0-4.86 1.19c-1.47.82-2.56 2.63-1.92 4.18a11.79 11.79 0 0 0 1.18 1.74c1.77 2.74 1.4 4.24 2.75 5.48.74.68 2.09 1.26 4.78.8a13 13 0 0 1 .6-5.67c.18-.52 1.67-4.25 3.46-5.57a2.16 2.16 0 0 0 1-1.1zM363.78 50.2a1.35 1.35 0 0 0-.61.07c-.63.27-.71 1.21-1.32 1.53s-1.21-.07-1.83-.07a2.78 2.78 0 0 0-1.87 1 1.89 1.89 0 0 0-.69 1.87 1.35 1.35 0 0 0 1.18.74 3.11 3.11 0 0 0 1.44-.26c2.19-.9 2.62-.18 3.57-1a4.91 4.91 0 0 0 1.37-2.69 6.21 6.21 0 0 0 .14-.94 4.14 4.14 0 0 0-1.38-.25zm51.25-37.68a4.64 4.64 0 0 0 .28 2.44 5.3 5.3 0 0 0 4.13 3.46 1.1 1.1 0 0 0 .92-.21c.4-.47-.39-1.27-.46-2.76-.05-1.11.36-1.14.32-2.34a3.32 3.32 0 0 0-1-2.61 2.27 2.27 0 0 0-2-.29 3 3 0 0 0-1.76 1.13 2.82 2.82 0 0 0-.43 1.18zM267.74 46.77a4.44 4.44 0 0 0-1.49 2.08l-1.33 2.93c-.27.6-.49 1.41 0 1.81a1.32 1.32 0 0 0 .68.22 11.39 11.39 0 0 0 3.47-.33 2.5 2.5 0 0 0 2.58-3v-2.47a1.77 1.77 0 0 0-.25-1.15 1.69 1.69 0 0 0-1.18-.47 4 4 0 0 0-2.48.38zm7.29 8.5a2.8 2.8 0 0 0-2.22-1.4 5.2 5.2 0 0 0-5.31 2.88 1.16 1.16 0 0 0-.14.62 1.31 1.31 0 0 0 .35.64c1.38 1.66 2.86 3.39 4.88 4.14a1.88 1.88 0 0 0 1.81-.07 1.66 1.66 0 0 0 .51-1.35c0-.5-.14-1-.14-1.49-.02-1.33.82-2.75.26-3.97zM156.47 92.44a3 3 0 0 0-2.69.6 3.15 3.15 0 0 0-1.08 2.53 1.25 1.25 0 0 0 .21.68 1.51 1.51 0 0 0 .65.42 4.64 4.64 0 0 0 2.81.55 2.84 2.84 0 0 0 2-1.76 2.75 2.75 0 0 0-1.9-3.02zm202.15-20.78a.43.43 0 0 0 .05.2.46.46 0 0 0 .56 0 12.91 12.91 0 0 1 4.12-.94 1.26 1.26 0 0 0 .51-.1.9.9 0 0 0 .37-.42 2.3 2.3 0 0 0-.77-2.7 4.47 4.47 0 0 0-2.86-.8c-.92 0-2 .36-2.21 1.27a2.28 2.28 0 0 0 0 .59z" fill="none" stroke="#201600" stroke-miterlimit="10" stroke-width="2"/></svg>