<svg id="Слой_1" xmlns="http://www.w3.org/2000/svg" viewBox="0 0 104 104"><style>.st0{fill:#3a4e56}.st1{fill:#fff}</style><circle class="st0" cx="52" cy="52" r="52"/><path id="instagram_1_" class="st1" d="M70.8 77.1H33.2c-3.5 0-6.3-2.8-6.3-6.3V33.2c0-3.5 2.8-6.3 6.3-6.3h37.7c3.5 0 6.3 2.8 6.3 6.3v37.7c-.1 3.4-2.9 6.2-6.4 6.2zM52 42.3c-3.9 0-7.3 2.3-8.8 5.7v.1l-.3.6c0 .1-.1.2-.1.3-.1.2-.1.4-.2.7 0 .1-.1.2-.1.3-.1.2-.1.5-.1.7v.3c0 .3-.1.7-.1 1 0 5.4 4.4 9.7 9.7 9.7 5.4 0 9.7-4.4 9.7-9.7 0-.4 0-.7-.1-1v-.3c0-.2-.1-.5-.1-.7 0-.1-.1-.2-.1-.3-.1-.2-.1-.4-.2-.7 0-.1-.1-.2-.1-.3l-.3-.6V48a9.59 9.59 0 0 0-8.8-5.7zM71.5 35c0-1.4-1.1-2.5-2.5-2.5h-5c-1.4 0-2.5 1.1-2.5 2.5v5c0 1.4 1.1 2.5 2.5 2.5h5c1.4 0 2.5-1.1 2.5-2.5v-5zm0 12.9h-4.6c.4 1.3.5 2.7.5 4.1 0 8.5-6.9 15.4-15.4 15.4S36.6 60.5 36.6 52c0-1.4.2-2.8.5-4.1h-4.6v21c0 1.4 1.1 2.5 2.5 2.5h34c1.4 0 2.5-1.1 2.5-2.5v-21z"/></svg>