<svg xmlns="http://www.w3.org/2000/svg" viewBox="0 0 95.1 80.8">
  <g data-name="Слой 1">
    <path style="fill: #979797;" d="M85.8,22H71.1l-4.5-9a5.87,5.87,0,0,0-5.4-3.3H38.8A6,6,0,0,0,33.4,13l-4.5,9H14.2A11.63,11.63,0,0,0,2.5,33.6V78.8A11.71,11.71,0,0,0,14.2,90.5H85.9A11.71,11.71,0,0,0,97.6,78.8V33.6A11.78,11.78,0,0,0,85.8,22ZM50,77.9A22.8,22.8,0,1,1,72.8,55.1,22.79,22.79,0,0,1,50,77.9Z" transform="translate(-2.5 -9.7)"/>
    <path style="fill: #979797;" d="M50,39.6a14.26,14.26,0,0,0-4.6.7,7.71,7.71,0,0,1,1.3,4.2,7.34,7.34,0,0,1-7.3,7.3,7.46,7.46,0,0,1-4.2-1.3,14.26,14.26,0,0,0-.7,4.6A15.5,15.5,0,1,0,50,39.6Z" transform="translate(-2.5 -9.7)"/>
  </g>
</svg>