<svg id="Слой_1" data-name="Слой 1" xmlns="http://www.w3.org/2000/svg" viewBox="0 0 1044 1044"><title>pinterest</title><path d="M960,582c288.29,0,522,233.71,522,522s-233.71,522-522,522-522-233.71-522-522S671.71,582,960,582Z" transform="translate(-438 -582)" style="fill:#d63633;fill-rule:evenodd"/><path d="M1241.16,1118.64a20.63,20.63,0,0,1,1-4.17c.7-1.71.95-1.46,1.67-2.35,4.15-17.59,9-32.64,12.25-51.73,10-58.06,8.8-114-14.56-166.69-86.55-195.19-380-200.28-506.6-44.35-37.58,46.28-68.11,114.58-57.88,195.9,6.3,50,28.17,99.41,69.69,123.72,38.77,22.7,37.4,4,46.12-28.85,2.53-9.55,5.93-17.36.58-26.14-3.68-6-9.23-11.7-13.73-18.54-25.41-38.63-23.29-89.14-11.37-132.79,17-62.46,65.67-113,121.52-133.73,68.69-25.51,152.26-19.07,204.3,20.08,52.74,39.68,71.06,102.26,57,191.17-5.65,35.79-15.47,69.85-30.75,98-14.49,26.74-35,52.29-62.76,64.92-37.05,16.86-72,9.5-94.49-14.37-42.71-45.41,15.24-124,23-200.43,4.15-40.78-10.22-73.28-46.37-79.07-40.56-6.51-68,22.74-80.52,46.6-15.44,29.53-18.63,73.07-9.51,109,1.59,6.26,7.27,20.74,7.69,24.82.66,6.46-39.7,171.75-42.19,182.47-7.94,34.24-19,70.66-20.12,107.44-.7,22.43-1,102.75,8.31,116.65,8.08,1.27,10.64-4.32,14.27-9.28,61.16-83.54,68.58-114.79,93.29-215.82,1.8-7.35,6-32.2,10.49-35.48l16.09,18.06c6,6.07,11.46,9.71,19.12,14.28,51.37,30.66,111.88,21.13,162.11-1.29,54.82-24.46,106.16-90.9,122.34-148Z" transform="translate(-438 -582)" style="fill:#fff;fill-rule:evenodd"/><path d="M1241.16,1118.64a7.7,7.7,0,0,0,1.57-2.48,30.14,30.14,0,0,0,1.09-4c-.72.89-1,.64-1.67,2.35a20.63,20.63,0,0,0-1,4.17Z" transform="translate(-438 -582)" style="fill:#eaa3a2;fill-rule:evenodd"/></svg>